<svg width="26" height="26" fill="none" xmlns="http://www.w3.org/2000/svg"><circle cx="13" cy="13" r="13" fill="#fff"/><path d="M16.352 13.379a.5.5 0 0 0 .003-.707l-3.17-3.195a.5.5 0 0 0-.71.704l2.818 2.84-2.84 2.817a.5.5 0 1 0 .704.71l3.195-3.169Zm-6.35-.879a.5.5 0 0 0-.004 1l.004-1Zm6 .024h-.25l-.027-.001h-.216l-.027-.001h-.21l-.026-.001H15.017l-.025-.001H14.769l-.024-.001H14.506l-.024-.001H14.274l-.022-.001H14.007l-.022-.001H13.77l-.022-.001H13.523l-.02-.001H13.265l-.02-.001H13.022l-.018-.001H12.77l-.017-.001H12.516l-.016-.001H12.26l-.015-.001H12.023l-.014-.001H11.772l-.013-.001H11.52l-.012-.001H11.267l-.011-.001H11.02l-.01-.001H10.765l-.008-.001H10.518l-.006-.001H10.265l-.005-.001H10.015l-.001-.001H10.002L10 13l-.002.5H10.236l.004.001H10.483l.006.001H10.609a.17.17 0 0 0 .007 0H10.73l.008.001H10.98l.008.001H11.23l.012.001H11.479l.012.001H11.73l.013.001h.013a.58.58 0 0 0 .014 0h.013a.594.594 0 0 0 .027 0H11.976l.014.001h.014a.691.691 0 0 0 .03 0h.072a.725.725 0 0 0 .03 0h.045a.77.77 0 0 0 .03 0h.016l.015.001h.062a.816.816 0 0 0 .031 0H12.48a.886.886 0 0 0 .032.001h.067a.94.94 0 0 0 .033 0H12.714l.018.001H12.98l.019.001H13.224l.019.001H13.479l.02.001h.04a1.367 1.367 0 0 1 .04 0H13.725l.021.001h.042a1.498 1.498 0 0 1 .043 0h.107a1.57 1.57 0 0 1 .044.001H14.113a1.65 1.65 0 0 1 .067 0h.045a1.71 1.71 0 0 0 .045.001h.092a1.779 1.779 0 0 1 .093 0l.023.001h.024a1.84 1.84 0 0 0 .095 0 1.888 1.888 0 0 0 .071 0h.049l.024.001H14.963l.025.001H15.217l.025.001h.21a2.359 2.359 0 0 1 .107.001h.162l.027.001h.028a2.512 2.512 0 0 1 .055 0h.111a2.613 2.613 0 0 0 .056.001l.004-1Z" fill="#D7224D"/></svg>