<svg aria-hidden="true" style="width:0;height:0;position:absolute;overflow:hidden" xmlns="http://www.w3.org/2000/svg"><defs><symbol id="arrow" viewBox="0 0 26 32"><path d="M3.52 32c-.96 0-1.92-.32-2.56-1.28-.96-1.28-.64-3.52.64-4.48L15.04 16 1.6 5.76C.32 4.8 0 2.56.96 1.28s3.2-1.6 4.48-.64l16.96 12.8c.64.64 1.28 1.6 1.28 2.56s-.64 1.92-1.28 2.56L5.44 31.36c-.64.32-1.28.64-1.92.64z"/></symbol><symbol id="arrow-right" viewBox="0 0 32 32"><path d="m19.414 27.414 10-10a2 2 0 0 0 0-2.828l-10-10a2 2 0 1 0-2.828 2.828L23.172 14H4a2 2 0 1 0 0 4h19.172l-6.586 6.586c-.39.39-.586.902-.586 1.414s.195 1.024.586 1.414a2 2 0 0 0 2.828 0z"/></symbol><symbol id="burger" viewBox="0 0 46 32"><path d="M45.714 30.857H0v-2.286h45.714v2.286zm0-13.714H0v-2.286h45.714v2.286zm0-13.714H0V1.143h45.714v2.286z"/></symbol><symbol id="cross" viewBox="0 0 32 32"><path d="M28.8 30.6 16 17.4 2.6 30.2l-1.2-1.4L14.6 16 1.8 2.6l1.4-1.2L16 14.6 29.4 1.8l1.2 1.4L17.4 16l12.8 13.4z"/></symbol><symbol id="big-circle" viewBox="0 0 32 32"><path d="M32.186 16c0 8.837-7.205 16-16.093 16S0 24.837 0 16 7.205 0 16.093 0s16.093 7.163 16.093 16z"/></symbol><symbol id="icon-facebook" viewBox="0 0 32 32"><path d="M20.446 15.982h-2.61v9.619h-3.955v-9.619H12v-3.38h1.881v-2.187c0-1.564.739-4.014 3.99-4.014l2.929.012v3.281h-2.125c-.349 0-.839.175-.839.921v1.989h2.955l-.346 3.377z"/></symbol><symbol id="icon-github" viewBox="0 0 32 32"><path d="M16 6.588c-5.169 0-9.412 4.242-9.412 9.412 0 4.411 3.095 8.419 7.206 9.412v-3.114a2.307 2.307 0 0 1-1.197-.03c-.556-.164-1.008-.535-1.344-1.1-.214-.361-.593-.752-.988-.723l-.097-1.099c.855-.073 1.595.521 2.034 1.259.195.328.419.52.708.605.278.082.578.043.926-.08.088-.698.407-.959.648-1.326v-.001c-2.451-.366-3.428-1.666-3.816-2.693-.514-1.363-.238-3.066.671-4.142.018-.021.05-.076.037-.114-.417-1.258.091-2.299.11-2.41.481.142.559-.143 2.089.786l.264.159c.111.066.076.028.186.02A8.031 8.031 0 0 1 16 11.131a8.016 8.016 0 0 1 2.002.285l.086.009c-.007-.001.023-.005.075-.036 1.911-1.157 1.842-.779 2.355-.946.019.111.519 1.169.107 2.411-.056.171 1.657 1.739.708 4.256-.388 1.027-1.365 2.328-3.816 2.693v.001c.314.479.692.734.69 1.722v3.887c4.111-.993 7.206-5 7.206-9.412 0-5.169-4.242-9.412-9.412-9.412z"/></symbol><symbol id="icon-telegram" viewBox="0 0 32 32"><path d="m12.867 18.375-.318 4.169c.454 0 .651-.182.887-.401l2.13-1.9 4.415 3.017c.81.421 1.38.199 1.598-.695l2.898-12.673c.257-1.117-.433-1.554-1.222-1.28L6.223 14.698c-1.162.421-1.145 1.026-.198 1.3l4.354 1.264 10.115-5.907c.476-.294.909-.131.553.163l-8.182 6.857z"/></symbol><symbol id="vector"><path d="m1.616 1 4.428 4-4.428 4" stroke-width="2" stroke-linecap="round" stroke-linejoin="round"/></symbol></defs></svg>