<svg width="26" height="26" viewBox="0 0 26 26" fill="none" xmlns="http://www.w3.org/2000/svg">
<circle cx="13" cy="13" r="13" fill="white"/>
<path d="M16.3521 13.379C16.5482 13.1845 16.5494 12.868 16.355 12.6719L13.1858 9.47721C12.9913 9.28116 12.6747 9.27989 12.4787 9.47437C12.2826 9.66885 12.2814 9.98543 12.4758 10.1815L15.2929 13.0212L12.4532 15.8383C12.2571 16.0328 12.2558 16.3493 12.4503 16.5454C12.6448 16.7414 12.9614 16.7427 13.1574 16.5482L16.3521 13.379ZM10.0021 12.5C9.72591 12.4989 9.50116 12.7219 9.50005 12.998C9.49895 13.2741 9.7219 13.4989 9.99804 13.5L10.0021 12.5ZM16.002 12.5241C15.9926 12.524 15.9833 12.524 15.9739 12.5239C15.9646 12.5239 15.9552 12.5239 15.9459 12.5238C15.9366 12.5238 15.9273 12.5238 15.918 12.5237C15.9087 12.5237 15.8994 12.5236 15.8902 12.5236C15.8809 12.5236 15.8716 12.5235 15.8624 12.5235C15.8532 12.5235 15.8439 12.5234 15.8347 12.5234C15.8255 12.5233 15.8163 12.5233 15.8071 12.5233C15.798 12.5232 15.7888 12.5232 15.7796 12.5232C15.7705 12.5231 15.7613 12.5231 15.7522 12.5231C15.7431 12.523 15.734 12.523 15.7249 12.5229C15.7158 12.5229 15.7067 12.5229 15.6976 12.5228C15.6885 12.5228 15.6795 12.5228 15.6704 12.5227C15.6614 12.5227 15.6523 12.5227 15.6433 12.5226C15.6343 12.5226 15.6253 12.5225 15.6163 12.5225C15.6073 12.5225 15.5983 12.5224 15.5893 12.5224C15.5804 12.5224 15.5714 12.5223 15.5625 12.5223C15.5535 12.5223 15.5446 12.5222 15.5357 12.5222C15.5268 12.5221 15.5179 12.5221 15.509 12.5221C15.5001 12.522 15.4912 12.522 15.4824 12.522C15.4735 12.5219 15.4647 12.5219 15.4558 12.5219C15.447 12.5218 15.4382 12.5218 15.4294 12.5218C15.4206 12.5217 15.4118 12.5217 15.403 12.5217C15.3942 12.5216 15.3855 12.5216 15.3767 12.5215C15.368 12.5215 15.3592 12.5215 15.3505 12.5214C15.3418 12.5214 15.3331 12.5214 15.3244 12.5213C15.3157 12.5213 15.307 12.5213 15.2983 12.5212C15.2896 12.5212 15.281 12.5212 15.2723 12.5211C15.2637 12.5211 15.255 12.5211 15.2464 12.521C15.2378 12.521 15.2292 12.521 15.2206 12.5209C15.212 12.5209 15.2034 12.5209 15.1949 12.5208C15.1863 12.5208 15.1777 12.5207 15.1692 12.5207C15.1607 12.5207 15.1521 12.5206 15.1436 12.5206C15.1351 12.5206 15.1266 12.5205 15.1181 12.5205C15.1096 12.5205 15.1011 12.5204 15.0927 12.5204C15.0842 12.5204 15.0758 12.5203 15.0673 12.5203C15.0589 12.5203 15.0505 12.5202 15.0421 12.5202C15.0337 12.5202 15.0253 12.5201 15.0169 12.5201C15.0085 12.5201 15.0001 12.52 14.9918 12.52C14.9834 12.52 14.9751 12.5199 14.9667 12.5199C14.9584 12.5199 14.9501 12.5198 14.9418 12.5198C14.9335 12.5198 14.9252 12.5197 14.9169 12.5197C14.9086 12.5197 14.9004 12.5196 14.8921 12.5196C14.8839 12.5196 14.8756 12.5195 14.8674 12.5195C14.8592 12.5195 14.851 12.5194 14.8428 12.5194C14.8345 12.5194 14.8264 12.5193 14.8182 12.5193C14.81 12.5193 14.8018 12.5192 14.7937 12.5192C14.7856 12.5192 14.7774 12.5191 14.7693 12.5191C14.7612 12.5191 14.7531 12.519 14.745 12.519C14.7369 12.519 14.7288 12.5189 14.7207 12.5189C14.7126 12.5189 14.7046 12.5189 14.6965 12.5188C14.6885 12.5188 14.6804 12.5188 14.6724 12.5187C14.6644 12.5187 14.6564 12.5187 14.6484 12.5186C14.6404 12.5186 14.6324 12.5186 14.6245 12.5185C14.6165 12.5185 14.6085 12.5185 14.6006 12.5184C14.5926 12.5184 14.5847 12.5184 14.5768 12.5183C14.5689 12.5183 14.561 12.5183 14.5531 12.5182C14.5452 12.5182 14.5373 12.5182 14.5294 12.5181C14.5216 12.5181 14.5137 12.5181 14.5059 12.5181C14.498 12.518 14.4902 12.518 14.4824 12.518C14.4746 12.5179 14.4668 12.5179 14.459 12.5179C14.4512 12.5178 14.4434 12.5178 14.4356 12.5178C14.4279 12.5177 14.4201 12.5177 14.4124 12.5177C14.4046 12.5176 14.3969 12.5176 14.3892 12.5176C14.3815 12.5176 14.3738 12.5175 14.3661 12.5175C14.3584 12.5175 14.3507 12.5174 14.343 12.5174C14.3354 12.5174 14.3277 12.5173 14.3201 12.5173C14.3124 12.5173 14.3048 12.5172 14.2972 12.5172C14.2896 12.5172 14.282 12.5172 14.2744 12.5171C14.2668 12.5171 14.2592 12.5171 14.2517 12.517C14.2441 12.517 14.2365 12.517 14.229 12.5169C14.2215 12.5169 14.2139 12.5169 14.2064 12.5169C14.1989 12.5168 14.1914 12.5168 14.1839 12.5168C14.1764 12.5167 14.169 12.5167 14.1615 12.5167C14.154 12.5166 14.1466 12.5166 14.1391 12.5166C14.1317 12.5166 14.1243 12.5165 14.1168 12.5165C14.1094 12.5165 14.102 12.5164 14.0946 12.5164C14.0872 12.5164 14.0799 12.5163 14.0725 12.5163C14.0651 12.5163 14.0578 12.5163 14.0504 12.5162C14.0431 12.5162 14.0358 12.5162 14.0285 12.5161C14.0211 12.5161 14.0138 12.5161 14.0065 12.5161C13.9992 12.516 13.992 12.516 13.9847 12.516C13.9774 12.5159 13.9702 12.5159 13.9629 12.5159C13.9557 12.5158 13.9485 12.5158 13.9412 12.5158C13.934 12.5158 13.9268 12.5157 13.9196 12.5157C13.9124 12.5157 13.9052 12.5156 13.8981 12.5156C13.8909 12.5156 13.8837 12.5156 13.8766 12.5155C13.8695 12.5155 13.8623 12.5155 13.8552 12.5154C13.8481 12.5154 13.841 12.5154 13.8339 12.5154C13.8268 12.5153 13.8197 12.5153 13.8126 12.5153C13.8056 12.5152 13.7985 12.5152 13.7914 12.5152C13.7844 12.5152 13.7774 12.5151 13.7703 12.5151C13.7633 12.5151 13.7563 12.5151 13.7493 12.515C13.7423 12.515 13.7353 12.515 13.7283 12.5149C13.7214 12.5149 13.7144 12.5149 13.7075 12.5149C13.7005 12.5148 13.6936 12.5148 13.6866 12.5148C13.6797 12.5147 13.6728 12.5147 13.6659 12.5147C13.659 12.5147 13.6521 12.5146 13.6452 12.5146C13.6383 12.5146 13.6315 12.5145 13.6246 12.5145C13.6178 12.5145 13.6109 12.5145 13.6041 12.5144C13.5973 12.5144 13.5904 12.5144 13.5836 12.5144C13.5768 12.5143 13.57 12.5143 13.5632 12.5143C13.5565 12.5142 13.5497 12.5142 13.5429 12.5142C13.5362 12.5142 13.5294 12.5141 13.5227 12.5141C13.516 12.5141 13.5092 12.5141 13.5025 12.514C13.4958 12.514 13.4891 12.514 13.4824 12.514C13.4757 12.5139 13.4691 12.5139 13.4624 12.5139C13.4557 12.5138 13.4491 12.5138 13.4424 12.5138C13.4358 12.5138 13.4292 12.5137 13.4225 12.5137C13.4159 12.5137 13.4093 12.5137 13.4027 12.5136C13.3961 12.5136 13.3895 12.5136 13.383 12.5136C13.3764 12.5135 13.3699 12.5135 13.3633 12.5135C13.3568 12.5134 13.3502 12.5134 13.3437 12.5134C13.3372 12.5134 13.3307 12.5133 13.3242 12.5133C13.3177 12.5133 13.3112 12.5133 13.3047 12.5132C13.2982 12.5132 13.2918 12.5132 13.2853 12.5132C13.2789 12.5131 13.2724 12.5131 13.266 12.5131C13.2596 12.5131 13.2531 12.513 13.2467 12.513C13.2403 12.513 13.2339 12.513 13.2275 12.5129C13.2212 12.5129 13.2148 12.5129 13.2084 12.5129C13.2021 12.5128 13.1957 12.5128 13.1894 12.5128C13.1831 12.5128 13.1767 12.5127 13.1704 12.5127C13.1641 12.5127 13.1578 12.5127 13.1515 12.5126C13.1452 12.5126 13.1389 12.5126 13.1327 12.5126C13.1264 12.5125 13.1202 12.5125 13.1139 12.5125C13.1077 12.5125 13.1014 12.5124 13.0952 12.5124C13.089 12.5124 13.0828 12.5124 13.0766 12.5123C13.0704 12.5123 13.0642 12.5123 13.058 12.5123C13.0518 12.5122 13.0457 12.5122 13.0395 12.5122C13.0334 12.5122 13.0272 12.5121 13.0211 12.5121C13.015 12.5121 13.0089 12.5121 13.0028 12.512C12.9966 12.512 12.9905 12.512 12.9845 12.512C12.9784 12.5119 12.9723 12.5119 12.9662 12.5119C12.9602 12.5119 12.9541 12.5118 12.9481 12.5118C12.9421 12.5118 12.936 12.5118 12.93 12.5117C12.924 12.5117 12.918 12.5117 12.912 12.5117C12.906 12.5116 12.9 12.5116 12.8941 12.5116C12.8881 12.5116 12.8821 12.5115 12.8762 12.5115C12.8702 12.5115 12.8643 12.5115 12.8584 12.5115C12.8524 12.5114 12.8465 12.5114 12.8406 12.5114C12.8347 12.5114 12.8288 12.5113 12.823 12.5113C12.8171 12.5113 12.8112 12.5113 12.8054 12.5112C12.7995 12.5112 12.7936 12.5112 12.7878 12.5112C12.782 12.5111 12.7762 12.5111 12.7703 12.5111C12.7645 12.5111 12.7587 12.5111 12.7529 12.511C12.7471 12.511 12.7414 12.511 12.7356 12.511C12.7298 12.5109 12.7241 12.5109 12.7183 12.5109C12.7126 12.5109 12.7068 12.5108 12.7011 12.5108C12.6954 12.5108 12.6897 12.5108 12.684 12.5108C12.6783 12.5107 12.6726 12.5107 12.6669 12.5107C12.6612 12.5107 12.6556 12.5106 12.6499 12.5106C12.6442 12.5106 12.6386 12.5106 12.633 12.5105C12.6273 12.5105 12.6217 12.5105 12.6161 12.5105C12.6105 12.5105 12.6049 12.5104 12.5993 12.5104C12.5937 12.5104 12.5881 12.5104 12.5825 12.5103C12.577 12.5103 12.5714 12.5103 12.5659 12.5103C12.5603 12.5103 12.5548 12.5102 12.5493 12.5102C12.5437 12.5102 12.5382 12.5102 12.5327 12.5101C12.5272 12.5101 12.5217 12.5101 12.5162 12.5101C12.5108 12.5101 12.5053 12.51 12.4998 12.51C12.4944 12.51 12.4889 12.51 12.4835 12.5099C12.478 12.5099 12.4726 12.5099 12.4672 12.5099C12.4618 12.5099 12.4564 12.5098 12.451 12.5098C12.4456 12.5098 12.4402 12.5098 12.4348 12.5098C12.4295 12.5097 12.4241 12.5097 12.4187 12.5097C12.4134 12.5097 12.408 12.5096 12.4027 12.5096C12.3974 12.5096 12.3921 12.5096 12.3868 12.5096C12.3815 12.5095 12.3762 12.5095 12.3709 12.5095C12.3656 12.5095 12.3603 12.5095 12.355 12.5094C12.3498 12.5094 12.3445 12.5094 12.3393 12.5094C12.334 12.5093 12.3288 12.5093 12.3236 12.5093C12.3184 12.5093 12.3131 12.5093 12.3079 12.5092C12.3027 12.5092 12.2975 12.5092 12.2924 12.5092C12.2872 12.5092 12.282 12.5091 12.2769 12.5091C12.2717 12.5091 12.2666 12.5091 12.2614 12.5091C12.2563 12.509 12.2512 12.509 12.246 12.509C12.2409 12.509 12.2358 12.509 12.2307 12.5089C12.2256 12.5089 12.2205 12.5089 12.2155 12.5089C12.2104 12.5089 12.2053 12.5088 12.2003 12.5088C12.1952 12.5088 12.1902 12.5088 12.1852 12.5088C12.1801 12.5087 12.1751 12.5087 12.1701 12.5087C12.1651 12.5087 12.1601 12.5087 12.1551 12.5086C12.1501 12.5086 12.1451 12.5086 12.1402 12.5086C12.1352 12.5086 12.1302 12.5085 12.1253 12.5085C12.1203 12.5085 12.1154 12.5085 12.1105 12.5085C12.1055 12.5084 12.1006 12.5084 12.0957 12.5084C12.0908 12.5084 12.0859 12.5084 12.081 12.5083C12.0761 12.5083 12.0713 12.5083 12.0664 12.5083C12.0615 12.5083 12.0567 12.5082 12.0518 12.5082C12.047 12.5082 12.0422 12.5082 12.0373 12.5082C12.0325 12.5081 12.0277 12.5081 12.0229 12.5081C12.0181 12.5081 12.0133 12.5081 12.0085 12.508C12.0038 12.508 11.999 12.508 11.9942 12.508C11.9895 12.508 11.9847 12.5079 11.98 12.5079C11.9752 12.5079 11.9705 12.5079 11.9658 12.5079C11.9611 12.5079 11.9564 12.5078 11.9517 12.5078C11.947 12.5078 11.9423 12.5078 11.9376 12.5078C11.9329 12.5077 11.9282 12.5077 11.9236 12.5077C11.9189 12.5077 11.9143 12.5077 11.9096 12.5076C11.905 12.5076 11.9004 12.5076 11.8958 12.5076C11.8911 12.5076 11.8865 12.5076 11.8819 12.5075C11.8773 12.5075 11.8728 12.5075 11.8682 12.5075C11.8636 12.5075 11.859 12.5074 11.8545 12.5074C11.8499 12.5074 11.8454 12.5074 11.8408 12.5074C11.8363 12.5074 11.8318 12.5073 11.8273 12.5073C11.8227 12.5073 11.8182 12.5073 11.8137 12.5073C11.8092 12.5072 11.8048 12.5072 11.8003 12.5072C11.7958 12.5072 11.7913 12.5072 11.7869 12.5072C11.7824 12.5071 11.778 12.5071 11.7735 12.5071C11.7691 12.5071 11.7647 12.5071 11.7603 12.507C11.7559 12.507 11.7514 12.507 11.7471 12.507C11.7427 12.507 11.7383 12.507 11.7339 12.5069C11.7295 12.5069 11.7252 12.5069 11.7208 12.5069C11.7164 12.5069 11.7121 12.5069 11.7078 12.5068C11.7034 12.5068 11.6991 12.5068 11.6948 12.5068C11.6905 12.5068 11.6862 12.5068 11.6819 12.5067C11.6776 12.5067 11.6733 12.5067 11.669 12.5067C11.6647 12.5067 11.6605 12.5066 11.6562 12.5066C11.6519 12.5066 11.6477 12.5066 11.6435 12.5066C11.6392 12.5066 11.635 12.5065 11.6308 12.5065C11.6266 12.5065 11.6224 12.5065 11.6182 12.5065C11.614 12.5065 11.6098 12.5064 11.6056 12.5064C11.6014 12.5064 11.5972 12.5064 11.5931 12.5064C11.5889 12.5064 11.5848 12.5063 11.5806 12.5063C11.5765 12.5063 11.5724 12.5063 11.5683 12.5063C11.5641 12.5063 11.56 12.5062 11.5559 12.5062C11.5518 12.5062 11.5477 12.5062 11.5436 12.5062C11.5396 12.5062 11.5355 12.5061 11.5314 12.5061C11.5274 12.5061 11.5233 12.5061 11.5193 12.5061C11.5152 12.5061 11.5112 12.5061 11.5072 12.506C11.5032 12.506 11.4991 12.506 11.4951 12.506C11.4911 12.506 11.4871 12.506 11.4832 12.5059C11.4792 12.5059 11.4752 12.5059 11.4712 12.5059C11.4673 12.5059 11.4633 12.5059 11.4594 12.5058C11.4554 12.5058 11.4515 12.5058 11.4476 12.5058C11.4436 12.5058 11.4397 12.5058 11.4358 12.5057C11.4319 12.5057 11.428 12.5057 11.4241 12.5057C11.4202 12.5057 11.4163 12.5057 11.4125 12.5057C11.4086 12.5056 11.4047 12.5056 11.4009 12.5056C11.397 12.5056 11.3932 12.5056 11.3894 12.5056C11.3855 12.5055 11.3817 12.5055 11.3779 12.5055C11.3741 12.5055 11.3703 12.5055 11.3665 12.5055C11.3627 12.5055 11.3589 12.5054 11.3551 12.5054C11.3514 12.5054 11.3476 12.5054 11.3438 12.5054C11.3401 12.5054 11.3363 12.5054 11.3326 12.5053C11.3289 12.5053 11.3251 12.5053 11.3214 12.5053C11.3177 12.5053 11.314 12.5053 11.3103 12.5052C11.3066 12.5052 11.3029 12.5052 11.2992 12.5052C11.2955 12.5052 11.2918 12.5052 11.2882 12.5052C11.2845 12.5051 11.2809 12.5051 11.2772 12.5051C11.2736 12.5051 11.2699 12.5051 11.2663 12.5051C11.2627 12.5051 11.2591 12.505 11.2555 12.505C11.2519 12.505 11.2483 12.505 11.2447 12.505C11.2411 12.505 11.2375 12.505 11.2339 12.5049C11.2304 12.5049 11.2268 12.5049 11.2232 12.5049C11.2197 12.5049 11.2162 12.5049 11.2126 12.5049C11.2091 12.5048 11.2056 12.5048 11.202 12.5048C11.1985 12.5048 11.195 12.5048 11.1915 12.5048C11.188 12.5048 11.1845 12.5047 11.1811 12.5047C11.1776 12.5047 11.1741 12.5047 11.1706 12.5047C11.1672 12.5047 11.1637 12.5047 11.1603 12.5046C11.1569 12.5046 11.1534 12.5046 11.15 12.5046C11.1466 12.5046 11.1432 12.5046 11.1397 12.5046C11.1363 12.5045 11.1329 12.5045 11.1296 12.5045C11.1262 12.5045 11.1228 12.5045 11.1194 12.5045C11.116 12.5045 11.1127 12.5045 11.1093 12.5044C11.106 12.5044 11.1026 12.5044 11.0993 12.5044C11.096 12.5044 11.0926 12.5044 11.0893 12.5044C11.086 12.5043 11.0827 12.5043 11.0794 12.5043C11.0761 12.5043 11.0728 12.5043 11.0695 12.5043C11.0663 12.5043 11.063 12.5043 11.0597 12.5042C11.0565 12.5042 11.0532 12.5042 11.05 12.5042C11.0467 12.5042 11.0435 12.5042 11.0403 12.5042C11.037 12.5042 11.0338 12.5041 11.0306 12.5041C11.0274 12.5041 11.0242 12.5041 11.021 12.5041C11.0178 12.5041 11.0146 12.5041 11.0114 12.504C11.0083 12.504 11.0051 12.504 11.002 12.504C10.9988 12.504 10.9956 12.504 10.9925 12.504C10.9894 12.504 10.9862 12.5039 10.9831 12.5039C10.98 12.5039 10.9769 12.5039 10.9738 12.5039C10.9707 12.5039 10.9676 12.5039 10.9645 12.5039C10.9614 12.5038 10.9583 12.5038 10.9553 12.5038C10.9522 12.5038 10.9491 12.5038 10.9461 12.5038C10.943 12.5038 10.94 12.5038 10.9369 12.5037C10.9339 12.5037 10.9309 12.5037 10.9279 12.5037C10.9249 12.5037 10.9218 12.5037 10.9188 12.5037C10.9158 12.5037 10.9129 12.5037 10.9099 12.5036C10.9069 12.5036 10.9039 12.5036 10.901 12.5036C10.898 12.5036 10.895 12.5036 10.8921 12.5036C10.8891 12.5036 10.8862 12.5035 10.8833 12.5035C10.8803 12.5035 10.8774 12.5035 10.8745 12.5035C10.8716 12.5035 10.8687 12.5035 10.8658 12.5035C10.8629 12.5035 10.86 12.5034 10.8571 12.5034C10.8542 12.5034 10.8514 12.5034 10.8485 12.5034C10.8456 12.5034 10.8428 12.5034 10.8399 12.5034C10.8371 12.5033 10.8343 12.5033 10.8314 12.5033C10.8286 12.5033 10.8258 12.5033 10.823 12.5033C10.8202 12.5033 10.8174 12.5033 10.8146 12.5033C10.8118 12.5032 10.809 12.5032 10.8062 12.5032C10.8034 12.5032 10.8007 12.5032 10.7979 12.5032C10.7951 12.5032 10.7924 12.5032 10.7896 12.5032C10.7869 12.5031 10.7842 12.5031 10.7814 12.5031C10.7787 12.5031 10.776 12.5031 10.7733 12.5031C10.7706 12.5031 10.7679 12.5031 10.7652 12.5031C10.7625 12.503 10.7598 12.503 10.7571 12.503C10.7544 12.503 10.7518 12.503 10.7491 12.503C10.7464 12.503 10.7438 12.503 10.7411 12.503C10.7385 12.503 10.7359 12.5029 10.7332 12.5029C10.7306 12.5029 10.728 12.5029 10.7254 12.5029C10.7228 12.5029 10.7201 12.5029 10.7176 12.5029C10.715 12.5029 10.7124 12.5028 10.7098 12.5028C10.7072 12.5028 10.7046 12.5028 10.7021 12.5028C10.6995 12.5028 10.697 12.5028 10.6944 12.5028C10.6919 12.5028 10.6893 12.5028 10.6868 12.5027C10.6843 12.5027 10.6817 12.5027 10.6792 12.5027C10.6767 12.5027 10.6742 12.5027 10.6717 12.5027C10.6692 12.5027 10.6667 12.5027 10.6642 12.5027C10.6618 12.5026 10.6593 12.5026 10.6568 12.5026C10.6544 12.5026 10.6519 12.5026 10.6495 12.5026C10.647 12.5026 10.6446 12.5026 10.6421 12.5026C10.6397 12.5026 10.6373 12.5025 10.6349 12.5025C10.6324 12.5025 10.63 12.5025 10.6276 12.5025C10.6252 12.5025 10.6228 12.5025 10.6205 12.5025C10.6181 12.5025 10.6157 12.5025 10.6133 12.5025C10.611 12.5024 10.6086 12.5024 10.6062 12.5024C10.6039 12.5024 10.6015 12.5024 10.5992 12.5024C10.5969 12.5024 10.5945 12.5024 10.5922 12.5024C10.5899 12.5024 10.5876 12.5023 10.5853 12.5023C10.583 12.5023 10.5807 12.5023 10.5784 12.5023C10.5761 12.5023 10.5738 12.5023 10.5715 12.5023C10.5693 12.5023 10.567 12.5023 10.5647 12.5023C10.5625 12.5022 10.5602 12.5022 10.558 12.5022C10.5557 12.5022 10.5535 12.5022 10.5513 12.5022C10.5491 12.5022 10.5468 12.5022 10.5446 12.5022C10.5424 12.5022 10.5402 12.5022 10.538 12.5022C10.5358 12.5021 10.5336 12.5021 10.5314 12.5021C10.5293 12.5021 10.5271 12.5021 10.5249 12.5021C10.5228 12.5021 10.5206 12.5021 10.5185 12.5021C10.5163 12.5021 10.5142 12.5021 10.512 12.502C10.5099 12.502 10.5078 12.502 10.5056 12.502C10.5035 12.502 10.5014 12.502 10.4993 12.502C10.4972 12.502 10.4951 12.502 10.493 12.502C10.4909 12.502 10.4889 12.502 10.4868 12.5019C10.4847 12.5019 10.4826 12.5019 10.4806 12.5019C10.4785 12.5019 10.4765 12.5019 10.4744 12.5019C10.4724 12.5019 10.4704 12.5019 10.4683 12.5019C10.4663 12.5019 10.4643 12.5019 10.4623 12.5018C10.4603 12.5018 10.4583 12.5018 10.4563 12.5018C10.4543 12.5018 10.4523 12.5018 10.4503 12.5018C10.4483 12.5018 10.4463 12.5018 10.4444 12.5018C10.4424 12.5018 10.4404 12.5018 10.4385 12.5018C10.4365 12.5017 10.4346 12.5017 10.4326 12.5017C10.4307 12.5017 10.4288 12.5017 10.4269 12.5017C10.4249 12.5017 10.423 12.5017 10.4211 12.5017C10.4192 12.5017 10.4173 12.5017 10.4154 12.5017C10.4135 12.5017 10.4116 12.5016 10.4098 12.5016C10.4079 12.5016 10.406 12.5016 10.4041 12.5016C10.4023 12.5016 10.4004 12.5016 10.3986 12.5016C10.3967 12.5016 10.3949 12.5016 10.393 12.5016C10.3912 12.5016 10.3894 12.5016 10.3876 12.5015C10.3857 12.5015 10.3839 12.5015 10.3821 12.5015C10.3803 12.5015 10.3785 12.5015 10.3767 12.5015C10.3749 12.5015 10.3732 12.5015 10.3714 12.5015C10.3696 12.5015 10.3678 12.5015 10.3661 12.5015C10.3643 12.5015 10.3626 12.5014 10.3608 12.5014C10.3591 12.5014 10.3573 12.5014 10.3556 12.5014C10.3539 12.5014 10.3521 12.5014 10.3504 12.5014C10.3487 12.5014 10.347 12.5014 10.3453 12.5014C10.3436 12.5014 10.3419 12.5014 10.3402 12.5014C10.3385 12.5014 10.3368 12.5013 10.3352 12.5013C10.3335 12.5013 10.3318 12.5013 10.3302 12.5013C10.3285 12.5013 10.3268 12.5013 10.3252 12.5013C10.3236 12.5013 10.3219 12.5013 10.3203 12.5013C10.3186 12.5013 10.317 12.5013 10.3154 12.5013C10.3138 12.5013 10.3122 12.5012 10.3106 12.5012C10.309 12.5012 10.3074 12.5012 10.3058 12.5012C10.3042 12.5012 10.3026 12.5012 10.301 12.5012C10.2995 12.5012 10.2979 12.5012 10.2963 12.5012C10.2948 12.5012 10.2932 12.5012 10.2917 12.5012C10.2901 12.5012 10.2886 12.5012 10.287 12.5011C10.2855 12.5011 10.284 12.5011 10.2825 12.5011C10.2809 12.5011 10.2794 12.5011 10.2779 12.5011C10.2764 12.5011 10.2749 12.5011 10.2734 12.5011C10.2719 12.5011 10.2704 12.5011 10.269 12.5011C10.2675 12.5011 10.266 12.5011 10.2646 12.5011C10.2631 12.501 10.2616 12.501 10.2602 12.501C10.2587 12.501 10.2573 12.501 10.2558 12.501C10.2544 12.501 10.253 12.501 10.2516 12.501C10.2501 12.501 10.2487 12.501 10.2473 12.501C10.2459 12.501 10.2445 12.501 10.2431 12.501C10.2417 12.501 10.2403 12.501 10.2389 12.501C10.2375 12.5009 10.2362 12.5009 10.2348 12.5009C10.2334 12.5009 10.2321 12.5009 10.2307 12.5009C10.2293 12.5009 10.228 12.5009 10.2267 12.5009C10.2253 12.5009 10.224 12.5009 10.2226 12.5009C10.2213 12.5009 10.22 12.5009 10.2187 12.5009C10.2174 12.5009 10.2161 12.5009 10.2148 12.5009C10.2134 12.5008 10.2122 12.5008 10.2109 12.5008C10.2096 12.5008 10.2083 12.5008 10.207 12.5008C10.2057 12.5008 10.2045 12.5008 10.2032 12.5008C10.2019 12.5008 10.2007 12.5008 10.1994 12.5008C10.1982 12.5008 10.1969 12.5008 10.1957 12.5008C10.1945 12.5008 10.1932 12.5008 10.192 12.5008C10.1908 12.5008 10.1896 12.5008 10.1884 12.5007C10.1872 12.5007 10.186 12.5007 10.1848 12.5007C10.1836 12.5007 10.1824 12.5007 10.1812 12.5007C10.18 12.5007 10.1788 12.5007 10.1777 12.5007C10.1765 12.5007 10.1753 12.5007 10.1742 12.5007C10.173 12.5007 10.1718 12.5007 10.1707 12.5007C10.1696 12.5007 10.1684 12.5007 10.1673 12.5007C10.1662 12.5007 10.165 12.5007 10.1639 12.5007C10.1628 12.5006 10.1617 12.5006 10.1606 12.5006C10.1595 12.5006 10.1584 12.5006 10.1573 12.5006C10.1562 12.5006 10.1551 12.5006 10.154 12.5006C10.1529 12.5006 10.1518 12.5006 10.1508 12.5006C10.1497 12.5006 10.1486 12.5006 10.1476 12.5006C10.1465 12.5006 10.1455 12.5006 10.1444 12.5006C10.1434 12.5006 10.1424 12.5006 10.1413 12.5006C10.1403 12.5006 10.1393 12.5006 10.1382 12.5005C10.1372 12.5005 10.1362 12.5005 10.1352 12.5005C10.1342 12.5005 10.1332 12.5005 10.1322 12.5005C10.1312 12.5005 10.1302 12.5005 10.1292 12.5005C10.1283 12.5005 10.1273 12.5005 10.1263 12.5005C10.1254 12.5005 10.1244 12.5005 10.1234 12.5005C10.1225 12.5005 10.1215 12.5005 10.1206 12.5005C10.1196 12.5005 10.1187 12.5005 10.1178 12.5005C10.1168 12.5005 10.1159 12.5005 10.115 12.5005C10.1141 12.5005 10.1132 12.5004 10.1123 12.5004C10.1113 12.5004 10.1104 12.5004 10.1095 12.5004C10.1087 12.5004 10.1078 12.5004 10.1069 12.5004C10.106 12.5004 10.1051 12.5004 10.1043 12.5004C10.1034 12.5004 10.1025 12.5004 10.1017 12.5004C10.1008 12.5004 10.0999 12.5004 10.0991 12.5004C10.0983 12.5004 10.0974 12.5004 10.0966 12.5004C10.0957 12.5004 10.0949 12.5004 10.0941 12.5004C10.0933 12.5004 10.0924 12.5004 10.0916 12.5004C10.0908 12.5004 10.09 12.5004 10.0892 12.5004C10.0884 12.5003 10.0876 12.5003 10.0868 12.5003C10.0861 12.5003 10.0853 12.5003 10.0845 12.5003C10.0837 12.5003 10.083 12.5003 10.0822 12.5003C10.0814 12.5003 10.0807 12.5003 10.0799 12.5003C10.0792 12.5003 10.0784 12.5003 10.0777 12.5003C10.0769 12.5003 10.0762 12.5003 10.0755 12.5003C10.0747 12.5003 10.074 12.5003 10.0733 12.5003C10.0726 12.5003 10.0719 12.5003 10.0712 12.5003C10.0705 12.5003 10.0698 12.5003 10.0691 12.5003C10.0684 12.5003 10.0677 12.5003 10.067 12.5003C10.0663 12.5003 10.0657 12.5003 10.065 12.5003C10.0643 12.5003 10.0636 12.5002 10.063 12.5002C10.0623 12.5002 10.0617 12.5002 10.061 12.5002C10.0604 12.5002 10.0597 12.5002 10.0591 12.5002C10.0585 12.5002 10.0578 12.5002 10.0572 12.5002C10.0566 12.5002 10.056 12.5002 10.0554 12.5002C10.0547 12.5002 10.0541 12.5002 10.0535 12.5002C10.0529 12.5002 10.0523 12.5002 10.0517 12.5002C10.0511 12.5002 10.0506 12.5002 10.05 12.5002C10.0494 12.5002 10.0488 12.5002 10.0483 12.5002C10.0477 12.5002 10.0471 12.5002 10.0466 12.5002C10.046 12.5002 10.0455 12.5002 10.0449 12.5002C10.0444 12.5002 10.0438 12.5002 10.0433 12.5002C10.0428 12.5002 10.0422 12.5002 10.0417 12.5002C10.0412 12.5002 10.0407 12.5002 10.0401 12.5002C10.0396 12.5002 10.0391 12.5002 10.0386 12.5001C10.0381 12.5001 10.0376 12.5001 10.0371 12.5001C10.0366 12.5001 10.0362 12.5001 10.0357 12.5001C10.0352 12.5001 10.0347 12.5001 10.0342 12.5001C10.0338 12.5001 10.0333 12.5001 10.0329 12.5001C10.0324 12.5001 10.0319 12.5001 10.0315 12.5001C10.031 12.5001 10.0306 12.5001 10.0302 12.5001C10.0297 12.5001 10.0293 12.5001 10.0289 12.5001C10.0284 12.5001 10.028 12.5001 10.0276 12.5001C10.0272 12.5001 10.0268 12.5001 10.0264 12.5001C10.026 12.5001 10.0256 12.5001 10.0252 12.5001C10.0248 12.5001 10.0244 12.5001 10.024 12.5001C10.0236 12.5001 10.0232 12.5001 10.0229 12.5001C10.0225 12.5001 10.0221 12.5001 10.0218 12.5001C10.0214 12.5001 10.021 12.5001 10.0207 12.5001C10.0203 12.5001 10.02 12.5001 10.0196 12.5001C10.0193 12.5001 10.019 12.5001 10.0186 12.5001C10.0183 12.5001 10.018 12.5001 10.0177 12.5001C10.0173 12.5001 10.017 12.5001 10.0167 12.5001C10.0164 12.5001 10.0161 12.5001 10.0158 12.5001C10.0155 12.5001 10.0152 12.5001 10.0149 12.5001C10.0146 12.5001 10.0143 12.5001 10.014 12.5C10.0138 12.5 10.0135 12.5 10.0132 12.5C10.0129 12.5 10.0127 12.5 10.0124 12.5C10.0122 12.5 10.0119 12.5 10.0117 12.5C10.0114 12.5 10.0112 12.5 10.0109 12.5C10.0107 12.5 10.0104 12.5 10.0102 12.5C10.01 12.5 10.0098 12.5 10.0095 12.5C10.0093 12.5 10.0091 12.5 10.0089 12.5C10.0087 12.5 10.0085 12.5 10.0083 12.5C10.0081 12.5 10.0079 12.5 10.0077 12.5C10.0075 12.5 10.0073 12.5 10.0071 12.5C10.007 12.5 10.0068 12.5 10.0066 12.5C10.0064 12.5 10.0063 12.5 10.0061 12.5C10.0059 12.5 10.0058 12.5 10.0056 12.5C10.0055 12.5 10.0053 12.5 10.0052 12.5C10.0051 12.5 10.0049 12.5 10.0048 12.5C10.0047 12.5 10.0045 12.5 10.0044 12.5C10.0043 12.5 10.0042 12.5 10.0041 12.5C10.0039 12.5 10.0038 12.5 10.0037 12.5C10.0036 12.5 10.0035 12.5 10.0034 12.5C10.0034 12.5 10.0033 12.5 10.0032 12.5C10.0031 12.5 10.003 12.5 10.0029 12.5C10.0029 12.5 10.0028 12.5 10.0027 12.5C10.0027 12.5 10.0026 12.5 10.0026 12.5C10.0025 12.5 10.0024 12.5 10.0024 12.5C10.0024 12.5 10.0023 12.5 10.0023 12.5C10.0022 12.5 10.0022 12.5 10.0022 12.5C10.0021 12.5 10.0021 12.5 10.0021 12.5C10.0021 12.5 10.0021 12.5 10.0021 12.5C10.0021 12.5 10.0021 12.5 10 13C9.99804 13.5 9.99805 13.5 9.99806 13.5C9.99807 13.5 9.99808 13.5 9.9981 13.5C9.99812 13.5 9.99814 13.5 9.99817 13.5C9.9982 13.5 9.99823 13.5 9.99826 13.5C9.9983 13.5 9.99834 13.5 9.99839 13.5C9.99844 13.5 9.99849 13.5 9.99854 13.5C9.9986 13.5 9.99866 13.5 9.99872 13.5C9.99879 13.5 9.99886 13.5 9.99893 13.5C9.99901 13.5 9.99909 13.5 9.99917 13.5C9.99925 13.5 9.99934 13.5 9.99944 13.5C9.99953 13.5 9.99963 13.5 9.99973 13.5C9.99983 13.5 9.99994 13.5 10.0001 13.5C10.0002 13.5 10.0003 13.5 10.0004 13.5C10.0005 13.5 10.0007 13.5 10.0008 13.5C10.0009 13.5 10.0011 13.5 10.0012 13.5C10.0013 13.5 10.0015 13.5 10.0016 13.5C10.0018 13.5 10.0019 13.5 10.0021 13.5C10.0023 13.5 10.0024 13.5 10.0026 13.5C10.0028 13.5 10.0029 13.5 10.0031 13.5C10.0033 13.5 10.0035 13.5 10.0037 13.5C10.0039 13.5 10.0041 13.5 10.0043 13.5C10.0045 13.5 10.0047 13.5 10.0049 13.5C10.0051 13.5 10.0053 13.5 10.0055 13.5C10.0057 13.5 10.006 13.5 10.0062 13.5C10.0064 13.5 10.0067 13.5 10.0069 13.5C10.0071 13.5 10.0074 13.5 10.0076 13.5C10.0079 13.5 10.0081 13.5 10.0084 13.5C10.0087 13.5 10.0089 13.5 10.0092 13.5C10.0095 13.5 10.0097 13.5 10.01 13.5C10.0103 13.5 10.0106 13.5 10.0109 13.5C10.0112 13.5 10.0115 13.5 10.0118 13.5C10.0121 13.5001 10.0124 13.5001 10.0127 13.5001C10.013 13.5001 10.0133 13.5001 10.0136 13.5001C10.014 13.5001 10.0143 13.5001 10.0146 13.5001C10.015 13.5001 10.0153 13.5001 10.0156 13.5001C10.016 13.5001 10.0163 13.5001 10.0167 13.5001C10.017 13.5001 10.0174 13.5001 10.0178 13.5001C10.0181 13.5001 10.0185 13.5001 10.0189 13.5001C10.0192 13.5001 10.0196 13.5001 10.02 13.5001C10.0204 13.5001 10.0208 13.5001 10.0212 13.5001C10.0216 13.5001 10.022 13.5001 10.0224 13.5001C10.0228 13.5001 10.0232 13.5001 10.0236 13.5001C10.024 13.5001 10.0244 13.5001 10.0249 13.5001C10.0253 13.5001 10.0257 13.5001 10.0262 13.5001C10.0266 13.5001 10.027 13.5001 10.0275 13.5001C10.0279 13.5001 10.0284 13.5001 10.0288 13.5001C10.0293 13.5001 10.0298 13.5001 10.0302 13.5001C10.0307 13.5001 10.0312 13.5001 10.0317 13.5001C10.0321 13.5001 10.0326 13.5001 10.0331 13.5001C10.0336 13.5001 10.0341 13.5001 10.0346 13.5001C10.0351 13.5001 10.0356 13.5001 10.0361 13.5001C10.0366 13.5001 10.0372 13.5002 10.0377 13.5002C10.0382 13.5002 10.0387 13.5002 10.0393 13.5002C10.0398 13.5002 10.0404 13.5002 10.0409 13.5002C10.0415 13.5002 10.042 13.5002 10.0426 13.5002C10.0431 13.5002 10.0437 13.5002 10.0443 13.5002C10.0448 13.5002 10.0454 13.5002 10.046 13.5002C10.0466 13.5002 10.0471 13.5002 10.0477 13.5002C10.0483 13.5002 10.0489 13.5002 10.0495 13.5002C10.0501 13.5002 10.0507 13.5002 10.0513 13.5002C10.052 13.5002 10.0526 13.5002 10.0532 13.5002C10.0538 13.5002 10.0545 13.5002 10.0551 13.5002C10.0557 13.5002 10.0564 13.5002 10.057 13.5002C10.0577 13.5002 10.0583 13.5002 10.059 13.5002C10.0596 13.5002 10.0603 13.5002 10.061 13.5002C10.0616 13.5002 10.0623 13.5003 10.063 13.5003C10.0637 13.5003 10.0644 13.5003 10.0651 13.5003C10.0658 13.5003 10.0665 13.5003 10.0672 13.5003C10.0679 13.5003 10.0686 13.5003 10.0693 13.5003C10.07 13.5003 10.0707 13.5003 10.0715 13.5003C10.0722 13.5003 10.0729 13.5003 10.0737 13.5003C10.0744 13.5003 10.0752 13.5003 10.0759 13.5003C10.0767 13.5003 10.0774 13.5003 10.0782 13.5003C10.0789 13.5003 10.0797 13.5003 10.0805 13.5003C10.0813 13.5003 10.082 13.5003 10.0828 13.5003C10.0836 13.5003 10.0844 13.5003 10.0852 13.5003C10.086 13.5003 10.0868 13.5003 10.0876 13.5004C10.0884 13.5004 10.0893 13.5004 10.0901 13.5004C10.0909 13.5004 10.0917 13.5004 10.0926 13.5004C10.0934 13.5004 10.0942 13.5004 10.0951 13.5004C10.0959 13.5004 10.0968 13.5004 10.0976 13.5004C10.0985 13.5004 10.0994 13.5004 10.1002 13.5004C10.1011 13.5004 10.102 13.5004 10.1029 13.5004C10.1038 13.5004 10.1046 13.5004 10.1055 13.5004C10.1064 13.5004 10.1073 13.5004 10.1082 13.5004C10.1092 13.5004 10.1101 13.5004 10.111 13.5004C10.1119 13.5005 10.1128 13.5005 10.1138 13.5005C10.1147 13.5005 10.1156 13.5005 10.1166 13.5005C10.1175 13.5005 10.1185 13.5005 10.1194 13.5005C10.1204 13.5005 10.1213 13.5005 10.1223 13.5005C10.1233 13.5005 10.1243 13.5005 10.1252 13.5005C10.1262 13.5005 10.1272 13.5005 10.1282 13.5005C10.1292 13.5005 10.1302 13.5005 10.1312 13.5005C10.1322 13.5005 10.1332 13.5005 10.1342 13.5005C10.1353 13.5005 10.1363 13.5005 10.1373 13.5006C10.1383 13.5006 10.1394 13.5006 10.1404 13.5006C10.1415 13.5006 10.1425 13.5006 10.1436 13.5006C10.1446 13.5006 10.1457 13.5006 10.1468 13.5006C10.1478 13.5006 10.1489 13.5006 10.15 13.5006C10.1511 13.5006 10.1522 13.5006 10.1533 13.5006C10.1543 13.5006 10.1554 13.5006 10.1566 13.5006C10.1577 13.5006 10.1588 13.5006 10.1599 13.5006C10.161 13.5006 10.1621 13.5007 10.1633 13.5007C10.1644 13.5007 10.1655 13.5007 10.1667 13.5007C10.1678 13.5007 10.169 13.5007 10.1701 13.5007C10.1713 13.5007 10.1725 13.5007 10.1736 13.5007C10.1748 13.5007 10.176 13.5007 10.1772 13.5007C10.1784 13.5007 10.1796 13.5007 10.1807 13.5007C10.1819 13.5007 10.1831 13.5007 10.1844 13.5007C10.1856 13.5007 10.1868 13.5008 10.188 13.5008C10.1892 13.5008 10.1905 13.5008 10.1917 13.5008C10.1929 13.5008 10.1942 13.5008 10.1954 13.5008C10.1967 13.5008 10.1979 13.5008 10.1992 13.5008C10.2005 13.5008 10.2017 13.5008 10.203 13.5008C10.2043 13.5008 10.2056 13.5008 10.2069 13.5008C10.2081 13.5008 10.2094 13.5008 10.2107 13.5008C10.212 13.5009 10.2134 13.5009 10.2147 13.5009C10.216 13.5009 10.2173 13.5009 10.2186 13.5009C10.22 13.5009 10.2213 13.5009 10.2226 13.5009C10.224 13.5009 10.2253 13.5009 10.2267 13.5009C10.2281 13.5009 10.2294 13.5009 10.2308 13.5009C10.2322 13.5009 10.2335 13.5009 10.2349 13.5009C10.2363 13.5009 10.2377 13.501 10.2391 13.501C10.2405 13.501 10.2419 13.501 10.2433 13.501C10.2447 13.501 10.2461 13.501 10.2475 13.501C10.249 13.501 10.2504 13.501 10.2518 13.501C10.2533 13.501 10.2547 13.501 10.2562 13.501C10.2576 13.501 10.2591 13.501 10.2605 13.501C10.262 13.5011 10.2635 13.5011 10.265 13.5011C10.2664 13.5011 10.2679 13.5011 10.2694 13.5011C10.2709 13.5011 10.2724 13.5011 10.2739 13.5011C10.2754 13.5011 10.2769 13.5011 10.2785 13.5011C10.28 13.5011 10.2815 13.5011 10.283 13.5011C10.2846 13.5011 10.2861 13.5011 10.2877 13.5012C10.2892 13.5012 10.2908 13.5012 10.2923 13.5012C10.2939 13.5012 10.2954 13.5012 10.297 13.5012C10.2986 13.5012 10.3002 13.5012 10.3018 13.5012C10.3034 13.5012 10.305 13.5012 10.3066 13.5012C10.3082 13.5012 10.3098 13.5012 10.3114 13.5012C10.313 13.5013 10.3146 13.5013 10.3163 13.5013C10.3179 13.5013 10.3195 13.5013 10.3212 13.5013C10.3228 13.5013 10.3245 13.5013 10.3262 13.5013C10.3278 13.5013 10.3295 13.5013 10.3312 13.5013C10.3328 13.5013 10.3345 13.5013 10.3362 13.5013C10.3379 13.5014 10.3396 13.5014 10.3413 13.5014C10.343 13.5014 10.3447 13.5014 10.3464 13.5014C10.3481 13.5014 10.3499 13.5014 10.3516 13.5014C10.3533 13.5014 10.3551 13.5014 10.3568 13.5014C10.3586 13.5014 10.3603 13.5014 10.3621 13.5015C10.3638 13.5015 10.3656 13.5015 10.3674 13.5015C10.3692 13.5015 10.3709 13.5015 10.3727 13.5015C10.3745 13.5015 10.3763 13.5015 10.3781 13.5015C10.3799 13.5015 10.3817 13.5015 10.3836 13.5015C10.3854 13.5015 10.3872 13.5016 10.389 13.5016C10.3909 13.5016 10.3927 13.5016 10.3946 13.5016C10.3964 13.5016 10.3983 13.5016 10.4001 13.5016C10.402 13.5016 10.4039 13.5016 10.4057 13.5016C10.4076 13.5016 10.4095 13.5016 10.4114 13.5017C10.4133 13.5017 10.4152 13.5017 10.4171 13.5017C10.419 13.5017 10.4209 13.5017 10.4228 13.5017C10.4248 13.5017 10.4267 13.5017 10.4286 13.5017C10.4306 13.5017 10.4325 13.5017 10.4345 13.5017C10.4364 13.5018 10.4384 13.5018 10.4403 13.5018C10.4423 13.5018 10.4443 13.5018 10.4463 13.5018C10.4483 13.5018 10.4502 13.5018 10.4522 13.5018C10.4542 13.5018 10.4562 13.5018 10.4583 13.5018C10.4603 13.5018 10.4623 13.5019 10.4643 13.5019C10.4663 13.5019 10.4684 13.5019 10.4704 13.5019C10.4725 13.5019 10.4745 13.5019 10.4766 13.5019C10.4786 13.5019 10.4807 13.5019 10.4828 13.5019C10.4848 13.5019 10.4869 13.502 10.489 13.502C10.4911 13.502 10.4932 13.502 10.4953 13.502C10.4974 13.502 10.4995 13.502 10.5016 13.502C10.5038 13.502 10.5059 13.502 10.508 13.502C10.5102 13.502 10.5123 13.5021 10.5144 13.5021C10.5166 13.5021 10.5188 13.5021 10.5209 13.5021C10.5231 13.5021 10.5253 13.5021 10.5274 13.5021C10.5296 13.5021 10.5318 13.5021 10.534 13.5021C10.5362 13.5022 10.5384 13.5022 10.5406 13.5022C10.5428 13.5022 10.545 13.5022 10.5473 13.5022C10.5495 13.5022 10.5517 13.5022 10.554 13.5022C10.5562 13.5022 10.5585 13.5022 10.5607 13.5022C10.563 13.5023 10.5653 13.5023 10.5675 13.5023C10.5698 13.5023 10.5721 13.5023 10.5744 13.5023C10.5767 13.5023 10.579 13.5023 10.5813 13.5023C10.5836 13.5023 10.5859 13.5024 10.5882 13.5024C10.5905 13.5024 10.5929 13.5024 10.5952 13.5024C10.5975 13.5024 10.5999 13.5024 10.6022 13.5024C10.6046 13.5024 10.6069 13.5024 10.6093 13.5024C10.6117 13.5025 10.6141 13.5025 10.6164 13.5025C10.6188 13.5025 10.6212 13.5025 10.6236 13.5025C10.626 13.5025 10.6284 13.5025 10.6309 13.5025C10.6333 13.5025 10.6357 13.5025 10.6381 13.5026C10.6406 13.5026 10.643 13.5026 10.6454 13.5026C10.6479 13.5026 10.6504 13.5026 10.6528 13.5026C10.6553 13.5026 10.6578 13.5026 10.6602 13.5026C10.6627 13.5027 10.6652 13.5027 10.6677 13.5027C10.6702 13.5027 10.6727 13.5027 10.6752 13.5027C10.6777 13.5027 10.6803 13.5027 10.6828 13.5027C10.6853 13.5027 10.6879 13.5028 10.6904 13.5028C10.693 13.5028 10.6955 13.5028 10.6981 13.5028C10.7006 13.5028 10.7032 13.5028 10.7058 13.5028C10.7084 13.5028 10.7109 13.5029 10.7135 13.5029C10.7161 13.5029 10.7187 13.5029 10.7214 13.5029C10.724 13.5029 10.7266 13.5029 10.7292 13.5029C10.7318 13.5029 10.7345 13.5029 10.7371 13.503C10.7398 13.503 10.7424 13.503 10.7451 13.503C10.7477 13.503 10.7504 13.503 10.7531 13.503C10.7558 13.503 10.7585 13.503 10.7612 13.5031C10.7638 13.5031 10.7665 13.5031 10.7693 13.5031C10.772 13.5031 10.7747 13.5031 10.7774 13.5031C10.7801 13.5031 10.7829 13.5031 10.7856 13.5032C10.7884 13.5032 10.7911 13.5032 10.7939 13.5032C10.7966 13.5032 10.7994 13.5032 10.8022 13.5032C10.805 13.5032 10.8078 13.5032 10.8106 13.5033C10.8133 13.5033 10.8162 13.5033 10.819 13.5033C10.8218 13.5033 10.8246 13.5033 10.8274 13.5033C10.8303 13.5033 10.8331 13.5033 10.8359 13.5034C10.8388 13.5034 10.8416 13.5034 10.8445 13.5034C10.8474 13.5034 10.8502 13.5034 10.8531 13.5034C10.856 13.5034 10.8589 13.5034 10.8618 13.5035C10.8647 13.5035 10.8676 13.5035 10.8705 13.5035C10.8734 13.5035 10.8763 13.5035 10.8793 13.5035C10.8822 13.5035 10.8851 13.5035 10.8881 13.5036C10.891 13.5036 10.894 13.5036 10.8969 13.5036C10.8999 13.5036 10.9029 13.5036 10.9059 13.5036C10.9088 13.5036 10.9118 13.5037 10.9148 13.5037C10.9178 13.5037 10.9208 13.5037 10.9239 13.5037C10.9269 13.5037 10.9299 13.5037 10.9329 13.5037C10.936 13.5038 10.939 13.5038 10.9421 13.5038C10.9451 13.5038 10.9482 13.5038 10.9513 13.5038C10.9543 13.5038 10.9574 13.5038 10.9605 13.5039C10.9636 13.5039 10.9667 13.5039 10.9698 13.5039C10.9729 13.5039 10.976 13.5039 10.9791 13.5039C10.9822 13.5039 10.9854 13.504 10.9885 13.504C10.9916 13.504 10.9948 13.504 10.9979 13.504C11.0011 13.504 11.0043 13.504 11.0074 13.504C11.0106 13.5041 11.0138 13.5041 11.017 13.5041C11.0202 13.5041 11.0234 13.5041 11.0266 13.5041C11.0298 13.5041 11.033 13.5041 11.0362 13.5042C11.0395 13.5042 11.0427 13.5042 11.046 13.5042C11.0492 13.5042 11.0525 13.5042 11.0557 13.5042C11.059 13.5042 11.0622 13.5043 11.0655 13.5043C11.0688 13.5043 11.0721 13.5043 11.0754 13.5043C11.0787 13.5043 11.082 13.5043 11.0853 13.5044C11.0886 13.5044 11.092 13.5044 11.0953 13.5044C11.0986 13.5044 11.102 13.5044 11.1053 13.5044C11.1087 13.5044 11.112 13.5045 11.1154 13.5045C11.1188 13.5045 11.1222 13.5045 11.1255 13.5045C11.1289 13.5045 11.1323 13.5045 11.1357 13.5046C11.1391 13.5046 11.1426 13.5046 11.146 13.5046C11.1494 13.5046 11.1528 13.5046 11.1563 13.5046C11.1597 13.5047 11.1632 13.5047 11.1666 13.5047C11.1701 13.5047 11.1736 13.5047 11.1771 13.5047C11.1805 13.5047 11.184 13.5047 11.1875 13.5048C11.191 13.5048 11.1945 13.5048 11.198 13.5048C11.2015 13.5048 11.2051 13.5048 11.2086 13.5048C11.2121 13.5049 11.2157 13.5049 11.2192 13.5049C11.2228 13.5049 11.2264 13.5049 11.2299 13.5049C11.2335 13.5049 11.2371 13.505 11.2407 13.505C11.2443 13.505 11.2478 13.505 11.2515 13.505C11.2551 13.505 11.2587 13.505 11.2623 13.5051C11.2659 13.5051 11.2696 13.5051 11.2732 13.5051C11.2769 13.5051 11.2805 13.5051 11.2842 13.5051C11.2878 13.5052 11.2915 13.5052 11.2952 13.5052C11.2989 13.5052 11.3026 13.5052 11.3063 13.5052C11.31 13.5053 11.3137 13.5053 11.3174 13.5053C11.3211 13.5053 11.3248 13.5053 11.3286 13.5053C11.3323 13.5053 11.3361 13.5054 11.3398 13.5054C11.3436 13.5054 11.3473 13.5054 11.3511 13.5054C11.3549 13.5054 11.3587 13.5054 11.3625 13.5055C11.3663 13.5055 11.3701 13.5055 11.3739 13.5055C11.3777 13.5055 11.3815 13.5055 11.3854 13.5056C11.3892 13.5056 11.393 13.5056 11.3969 13.5056C11.4007 13.5056 11.4046 13.5056 11.4085 13.5056C11.4123 13.5057 11.4162 13.5057 11.4201 13.5057C11.424 13.5057 11.4279 13.5057 11.4318 13.5057C11.4357 13.5058 11.4396 13.5058 11.4435 13.5058C11.4475 13.5058 11.4514 13.5058 11.4554 13.5058C11.4593 13.5059 11.4633 13.5059 11.4672 13.5059C11.4712 13.5059 11.4752 13.5059 11.4791 13.5059C11.4831 13.5059 11.4871 13.506 11.4911 13.506C11.4951 13.506 11.4991 13.506 11.5032 13.506C11.5072 13.506 11.5112 13.5061 11.5153 13.5061C11.5193 13.5061 11.5234 13.5061 11.5274 13.5061C11.5315 13.5061 11.5356 13.5062 11.5396 13.5062C11.5437 13.5062 11.5478 13.5062 11.5519 13.5062C11.556 13.5062 11.5601 13.5063 11.5642 13.5063C11.5684 13.5063 11.5725 13.5063 11.5766 13.5063C11.5808 13.5063 11.5849 13.5064 11.5891 13.5064C11.5932 13.5064 11.5974 13.5064 11.6016 13.5064C11.6058 13.5064 11.61 13.5065 11.6141 13.5065C11.6183 13.5065 11.6226 13.5065 11.6268 13.5065C11.631 13.5065 11.6352 13.5066 11.6395 13.5066C11.6437 13.5066 11.6479 13.5066 11.6522 13.5066C11.6565 13.5066 11.6607 13.5067 11.665 13.5067C11.6693 13.5067 11.6736 13.5067 11.6779 13.5067C11.6822 13.5067 11.6865 13.5068 11.6908 13.5068C11.6951 13.5068 11.6994 13.5068 11.7038 13.5068C11.7081 13.5068 11.7124 13.5069 11.7168 13.5069C11.7211 13.5069 11.7255 13.5069 11.7299 13.5069C11.7343 13.507 11.7386 13.507 11.743 13.507C11.7474 13.507 11.7518 13.507 11.7563 13.507C11.7607 13.5071 11.7651 13.5071 11.7695 13.5071C11.774 13.5071 11.7784 13.5071 11.7829 13.5071C11.7873 13.5072 11.7918 13.5072 11.7963 13.5072C11.8007 13.5072 11.8052 13.5072 11.8097 13.5073C11.8142 13.5073 11.8187 13.5073 11.8232 13.5073C11.8278 13.5073 11.8323 13.5073 11.8368 13.5074C11.8414 13.5074 11.8459 13.5074 11.8505 13.5074C11.855 13.5074 11.8596 13.5075 11.8642 13.5075C11.8687 13.5075 11.8733 13.5075 11.8779 13.5075C11.8825 13.5075 11.8871 13.5076 11.8917 13.5076C11.8964 13.5076 11.901 13.5076 11.9056 13.5076C11.9103 13.5077 11.9149 13.5077 11.9196 13.5077C11.9242 13.5077 11.9289 13.5077 11.9336 13.5078C11.9383 13.5078 11.9429 13.5078 11.9476 13.5078C11.9523 13.5078 11.9571 13.5078 11.9618 13.5079C11.9665 13.5079 11.9712 13.5079 11.976 13.5079C11.9807 13.5079 11.9855 13.508 11.9902 13.508C11.995 13.508 11.9997 13.508 12.0045 13.508C12.0093 13.5081 12.0141 13.5081 12.0189 13.5081C12.0237 13.5081 12.0285 13.5081 12.0333 13.5082C12.0382 13.5082 12.043 13.5082 12.0478 13.5082C12.0527 13.5082 12.0575 13.5082 12.0624 13.5083C12.0673 13.5083 12.0721 13.5083 12.077 13.5083C12.0819 13.5083 12.0868 13.5084 12.0917 13.5084C12.0966 13.5084 12.1015 13.5084 12.1065 13.5084C12.1114 13.5085 12.1163 13.5085 12.1213 13.5085C12.1262 13.5085 12.1312 13.5085 12.1361 13.5086C12.1411 13.5086 12.1461 13.5086 12.1511 13.5086C12.1561 13.5086 12.1611 13.5087 12.1661 13.5087C12.1711 13.5087 12.1761 13.5087 12.1811 13.5087C12.1862 13.5088 12.1912 13.5088 12.1963 13.5088C12.2013 13.5088 12.2064 13.5088 12.2115 13.5089C12.2165 13.5089 12.2216 13.5089 12.2267 13.5089C12.2318 13.5089 12.2369 13.509 12.242 13.509C12.2471 13.509 12.2523 13.509 12.2574 13.5091C12.2625 13.5091 12.2677 13.5091 12.2729 13.5091C12.278 13.5091 12.2832 13.5092 12.2884 13.5092C12.2935 13.5092 12.2987 13.5092 12.3039 13.5092C12.3091 13.5093 12.3143 13.5093 12.3196 13.5093C12.3248 13.5093 12.33 13.5093 12.3353 13.5094C12.3405 13.5094 12.3458 13.5094 12.351 13.5094C12.3563 13.5094 12.3616 13.5095 12.3669 13.5095C12.3721 13.5095 12.3774 13.5095 12.3828 13.5096C12.3881 13.5096 12.3934 13.5096 12.3987 13.5096C12.404 13.5096 12.4094 13.5097 12.4147 13.5097C12.4201 13.5097 12.4254 13.5097 12.4308 13.5097C12.4362 13.5098 12.4416 13.5098 12.447 13.5098C12.4524 13.5098 12.4578 13.5099 12.4632 13.5099C12.4686 13.5099 12.474 13.5099 12.4795 13.5099C12.4849 13.51 12.4904 13.51 12.4958 13.51C12.5013 13.51 12.5067 13.51 12.5122 13.5101C12.5177 13.5101 12.5232 13.5101 12.5287 13.5101C12.5342 13.5102 12.5397 13.5102 12.5453 13.5102C12.5508 13.5102 12.5563 13.5102 12.5619 13.5103C12.5674 13.5103 12.573 13.5103 12.5785 13.5103C12.5841 13.5104 12.5897 13.5104 12.5953 13.5104C12.6009 13.5104 12.6065 13.5104 12.6121 13.5105C12.6177 13.5105 12.6233 13.5105 12.629 13.5105C12.6346 13.5106 12.6402 13.5106 12.6459 13.5106C12.6516 13.5106 12.6572 13.5107 12.6629 13.5107C12.6686 13.5107 12.6743 13.5107 12.68 13.5107C12.6857 13.5108 12.6914 13.5108 12.6971 13.5108C12.7028 13.5108 12.7086 13.5109 12.7143 13.5109C12.7201 13.5109 12.7258 13.5109 12.7316 13.511C12.7374 13.511 12.7431 13.511 12.7489 13.511C12.7547 13.511 12.7605 13.5111 12.7663 13.5111C12.7721 13.5111 12.778 13.5111 12.7838 13.5112C12.7896 13.5112 12.7955 13.5112 12.8013 13.5112C12.8072 13.5113 12.8131 13.5113 12.8189 13.5113C12.8248 13.5113 12.8307 13.5113 12.8366 13.5114C12.8425 13.5114 12.8484 13.5114 12.8544 13.5114C12.8603 13.5115 12.8662 13.5115 12.8722 13.5115C12.8781 13.5115 12.8841 13.5116 12.8901 13.5116C12.896 13.5116 12.902 13.5116 12.908 13.5117C12.914 13.5117 12.92 13.5117 12.926 13.5117C12.932 13.5118 12.9381 13.5118 12.9441 13.5118C12.9501 13.5118 12.9562 13.5119 12.9622 13.5119C12.9683 13.5119 12.9744 13.5119 12.9805 13.5119C12.9865 13.512 12.9926 13.512 12.9987 13.512C13.0048 13.512 13.011 13.5121 13.0171 13.5121C13.0232 13.5121 13.0294 13.5121 13.0355 13.5122C13.0417 13.5122 13.0478 13.5122 13.054 13.5122C13.0602 13.5123 13.0664 13.5123 13.0726 13.5123C13.0788 13.5123 13.085 13.5124 13.0912 13.5124C13.0974 13.5124 13.1037 13.5124 13.1099 13.5125C13.1161 13.5125 13.1224 13.5125 13.1287 13.5125C13.1349 13.5126 13.1412 13.5126 13.1475 13.5126C13.1538 13.5126 13.1601 13.5127 13.1664 13.5127C13.1727 13.5127 13.179 13.5127 13.1854 13.5128C13.1917 13.5128 13.1981 13.5128 13.2044 13.5128C13.2108 13.5129 13.2172 13.5129 13.2235 13.5129C13.2299 13.5129 13.2363 13.513 13.2427 13.513C13.2491 13.513 13.2555 13.5131 13.262 13.5131C13.2684 13.5131 13.2748 13.5131 13.2813 13.5132C13.2878 13.5132 13.2942 13.5132 13.3007 13.5132C13.3072 13.5133 13.3137 13.5133 13.3202 13.5133C13.3267 13.5133 13.3332 13.5134 13.3397 13.5134C13.3462 13.5134 13.3527 13.5134 13.3593 13.5135C13.3658 13.5135 13.3724 13.5135 13.379 13.5135C13.3855 13.5136 13.3921 13.5136 13.3987 13.5136C13.4053 13.5137 13.4119 13.5137 13.4185 13.5137C13.4252 13.5137 13.4318 13.5138 13.4384 13.5138C13.4451 13.5138 13.4517 13.5138 13.4584 13.5139C13.465 13.5139 13.4717 13.5139 13.4784 13.5139C13.4851 13.514 13.4918 13.514 13.4985 13.514C13.5052 13.5141 13.5119 13.5141 13.5187 13.5141C13.5254 13.5141 13.5322 13.5142 13.5389 13.5142C13.5457 13.5142 13.5525 13.5142 13.5592 13.5143C13.566 13.5143 13.5728 13.5143 13.5796 13.5144C13.5864 13.5144 13.5932 13.5144 13.6001 13.5144C13.6069 13.5145 13.6138 13.5145 13.6206 13.5145C13.6275 13.5145 13.6343 13.5146 13.6412 13.5146C13.6481 13.5146 13.655 13.5147 13.6619 13.5147C13.6688 13.5147 13.6757 13.5147 13.6826 13.5148C13.6896 13.5148 13.6965 13.5148 13.7034 13.5148C13.7104 13.5149 13.7174 13.5149 13.7243 13.5149C13.7313 13.515 13.7383 13.515 13.7453 13.515C13.7523 13.515 13.7593 13.5151 13.7663 13.5151C13.7734 13.5151 13.7804 13.5152 13.7874 13.5152C13.7945 13.5152 13.8015 13.5152 13.8086 13.5153C13.8157 13.5153 13.8228 13.5153 13.8299 13.5154C13.837 13.5154 13.8441 13.5154 13.8512 13.5154C13.8583 13.5155 13.8654 13.5155 13.8726 13.5155C13.8797 13.5156 13.8869 13.5156 13.8941 13.5156C13.9012 13.5156 13.9084 13.5157 13.9156 13.5157C13.9228 13.5157 13.93 13.5158 13.9372 13.5158C13.9444 13.5158 13.9517 13.5158 13.9589 13.5159C13.9662 13.5159 13.9734 13.5159 13.9807 13.516C13.988 13.516 13.9952 13.516 14.0025 13.516C14.0098 13.5161 14.0171 13.5161 14.0244 13.5161C14.0318 13.5162 14.0391 13.5162 14.0464 13.5162C14.0538 13.5163 14.0611 13.5163 14.0685 13.5163C14.0759 13.5163 14.0832 13.5164 14.0906 13.5164C14.098 13.5164 14.1054 13.5165 14.1128 13.5165C14.1203 13.5165 14.1277 13.5165 14.1351 13.5166C14.1426 13.5166 14.15 13.5166 14.1575 13.5167C14.1649 13.5167 14.1724 13.5167 14.1799 13.5168C14.1874 13.5168 14.1949 13.5168 14.2024 13.5168C14.2099 13.5169 14.2175 13.5169 14.225 13.5169C14.2325 13.517 14.2401 13.517 14.2477 13.517C14.2552 13.5171 14.2628 13.5171 14.2704 13.5171C14.278 13.5171 14.2856 13.5172 14.2932 13.5172C14.3008 13.5172 14.3084 13.5173 14.3161 13.5173C14.3237 13.5173 14.3314 13.5174 14.339 13.5174C14.3467 13.5174 14.3544 13.5175 14.3621 13.5175C14.3698 13.5175 14.3775 13.5175 14.3852 13.5176C14.3929 13.5176 14.4006 13.5176 14.4084 13.5177C14.4161 13.5177 14.4239 13.5177 14.4316 13.5178C14.4394 13.5178 14.4472 13.5178 14.455 13.5179C14.4628 13.5179 14.4706 13.5179 14.4784 13.518C14.4862 13.518 14.494 13.518 14.5019 13.518C14.5097 13.5181 14.5176 13.5181 14.5254 13.5181C14.5333 13.5182 14.5412 13.5182 14.5491 13.5182C14.557 13.5183 14.5649 13.5183 14.5728 13.5183C14.5807 13.5184 14.5886 13.5184 14.5966 13.5184C14.6045 13.5185 14.6125 13.5185 14.6204 13.5185C14.6284 13.5186 14.6364 13.5186 14.6444 13.5186C14.6524 13.5187 14.6604 13.5187 14.6684 13.5187C14.6764 13.5187 14.6845 13.5188 14.6925 13.5188C14.7006 13.5188 14.7086 13.5189 14.7167 13.5189C14.7248 13.5189 14.7329 13.519 14.741 13.519C14.749 13.519 14.7572 13.5191 14.7653 13.5191C14.7734 13.5191 14.7815 13.5192 14.7897 13.5192C14.7978 13.5192 14.806 13.5193 14.8142 13.5193C14.8224 13.5193 14.8305 13.5194 14.8387 13.5194C14.8469 13.5194 14.8552 13.5195 14.8634 13.5195C14.8716 13.5195 14.8799 13.5196 14.8881 13.5196C14.8964 13.5196 14.9046 13.5197 14.9129 13.5197C14.9212 13.5197 14.9295 13.5198 14.9378 13.5198C14.9461 13.5198 14.9544 13.5199 14.9627 13.5199C14.9711 13.5199 14.9794 13.52 14.9878 13.52C14.9961 13.52 15.0045 13.5201 15.0129 13.5201C15.0213 13.5201 15.0297 13.5202 15.0381 13.5202C15.0465 13.5202 15.0549 13.5203 15.0633 13.5203C15.0718 13.5203 15.0802 13.5204 15.0887 13.5204C15.0971 13.5204 15.1056 13.5205 15.1141 13.5205C15.1226 13.5205 15.1311 13.5206 15.1396 13.5206C15.1481 13.5206 15.1566 13.5207 15.1652 13.5207C15.1737 13.5207 15.1823 13.5208 15.1908 13.5208C15.1994 13.5208 15.208 13.5209 15.2166 13.5209C15.2252 13.5209 15.2338 13.521 15.2424 13.521C15.251 13.521 15.2597 13.5211 15.2683 13.5211C15.277 13.5212 15.2856 13.5212 15.2943 13.5212C15.303 13.5213 15.3116 13.5213 15.3203 13.5213C15.329 13.5214 15.3378 13.5214 15.3465 13.5214C15.3552 13.5215 15.3639 13.5215 15.3727 13.5215C15.3815 13.5216 15.3902 13.5216 15.399 13.5216C15.4078 13.5217 15.4166 13.5217 15.4254 13.5217C15.4342 13.5218 15.443 13.5218 15.4518 13.5219C15.4607 13.5219 15.4695 13.5219 15.4784 13.522C15.4872 13.522 15.4961 13.522 15.505 13.5221C15.5139 13.5221 15.5228 13.5221 15.5317 13.5222C15.5406 13.5222 15.5495 13.5222 15.5585 13.5223C15.5674 13.5223 15.5764 13.5224 15.5853 13.5224C15.5943 13.5224 15.6033 13.5225 15.6123 13.5225C15.6213 13.5225 15.6303 13.5226 15.6393 13.5226C15.6483 13.5226 15.6574 13.5227 15.6664 13.5227C15.6754 13.5228 15.6845 13.5228 15.6936 13.5228C15.7027 13.5229 15.7117 13.5229 15.7209 13.5229C15.73 13.523 15.7391 13.523 15.7482 13.523C15.7573 13.5231 15.7665 13.5231 15.7756 13.5232C15.7848 13.5232 15.794 13.5232 15.8031 13.5233C15.8123 13.5233 15.8215 13.5233 15.8307 13.5234C15.8399 13.5234 15.8492 13.5234 15.8584 13.5235C15.8676 13.5235 15.8769 13.5236 15.8862 13.5236C15.8954 13.5236 15.9047 13.5237 15.914 13.5237C15.9233 13.5237 15.9326 13.5238 15.9419 13.5238C15.9512 13.5239 15.9606 13.5239 15.9699 13.5239C15.9793 13.524 15.9886 13.524 15.998 13.524L16.002 12.5241Z" fill="#D7224D"/>
</svg>
